<svg data-v-fde0c5aa="" xmlns="http://www.w3.org/2000/svg" viewBox="0 0 300 300" class="iconAbove"><!----><defs data-v-fde0c5aa=""><linearGradient data-v-fde0c5aa="" gradientTransform="rotate(25)" id="4cef14c2-2d3d-4334-b096-1313def2a2bc" x1="0%" y1="0%" x2="100%" y2="0%"><stop data-v-fde0c5aa="" offset="0%" stop-color="#30223A" stop-opacity="1"></stop><stop data-v-fde0c5aa="" offset="100%" stop-color="#F13800" stop-opacity="1"></stop></linearGradient></defs><rect data-v-fde0c5aa="" fill="url(#4cef14c2-2d3d-4334-b096-1313def2a2bc)" x="0" y="0" width="300px" height="300px" class="logo-background-square"></rect><defs data-v-fde0c5aa=""><!----></defs><g data-v-fde0c5aa="" id="6fa4685d-4adb-4017-8ac0-eefcdb4131be" fill="#ffffff" transform="matrix(6.049715421473347,0,0,6.049715421473347,19.53788082030157,169.7987425465812)"><path d="M7.66 8.85L7.66 8.85L7.66 8.85Q7.66 11.82 6.29 13.15L6.29 13.15L7.06 14.31L6.20 14.91L5.40 13.72L5.40 13.72Q4.90 13.92 4.31 13.92L4.31 13.92L4.31 13.92Q3.43 13.92 2.77 13.48L2.77 13.48L2.77 13.48Q2.10 13.05 1.72 12.31L1.72 12.31L1.72 12.31Q1.34 11.56 1.16 10.70L1.16 10.70L1.16 10.70Q0.98 9.83 0.98 8.85L0.98 8.85L0.98 8.85Q0.98 7.87 1.16 7.00L1.16 7.00L1.16 7.00Q1.34 6.13 1.72 5.39L1.72 5.39L1.72 5.39Q2.10 4.65 2.77 4.21L2.77 4.21L2.77 4.21Q3.43 3.78 4.31 3.78L4.31 3.78L4.31 3.78Q5.19 3.78 5.86 4.21L5.86 4.21L5.86 4.21Q6.52 4.65 6.91 5.39L6.91 5.39L6.91 5.39Q7.29 6.13 7.48 7.00L7.48 7.00L7.48 7.00Q7.66 7.87 7.66 8.85ZM4.31 12.80L4.31 12.80L4.31 12.80Q4.56 12.80 4.75 12.74L4.75 12.74L4.07 11.75L4.96 11.14L5.59 12.10L5.59 12.10Q6.40 11.03 6.40 8.85L6.40 8.85L6.40 8.85Q6.40 7.15 5.89 6.03L5.89 6.03L5.89 6.03Q5.38 4.90 4.31 4.90L4.31 4.90L4.31 4.90Q3.58 4.90 3.10 5.51L3.10 5.51L3.10 5.51Q2.62 6.12 2.42 6.97L2.42 6.97L2.42 6.97Q2.23 7.83 2.23 8.85L2.23 8.85L2.23 8.85Q2.23 10.54 2.74 11.67L2.74 11.67L2.74 11.67Q3.25 12.80 4.31 12.80ZM16.06 6.73L16.06 6.73L16.06 6.73Q16.06 7.69 15.53 8.45L15.53 8.45L15.53 8.45Q15.01 9.21 13.92 9.45L13.92 9.45L16.02 13.75L14.69 13.75L12.64 9.55L11.17 9.55L11.17 13.75L9.97 13.75L9.97 3.95L12.98 3.95L12.98 3.95Q14.62 3.95 15.34 4.74L15.34 4.74L15.34 4.74Q16.06 5.53 16.06 6.73ZM13.01 5.05L11.17 5.05L11.17 8.44L13.01 8.44L13.01 8.44Q13.99 8.44 14.43 7.96L14.43 7.96L14.43 7.96Q14.87 7.48 14.87 6.76L14.87 6.76L14.87 6.76Q14.87 6.09 14.43 5.57L14.43 5.57L14.43 5.57Q14 5.05 13.01 5.05L13.01 5.05ZM30.24 13.75L27.22 13.75L27.22 3.95L30.03 3.95L30.03 3.95Q31.64 3.95 32.35 4.68L32.35 4.68L32.35 4.68Q33.07 5.42 33.07 6.52L33.07 6.52L33.07 6.52Q33.07 7.24 32.68 7.77L32.68 7.77L32.68 7.77Q32.30 8.30 31.61 8.58L31.61 8.58L31.61 8.58Q32.44 8.81 32.93 9.44L32.93 9.44L32.93 9.44Q33.42 10.07 33.42 10.96L33.42 10.96L33.42 10.96Q33.42 12.12 32.66 12.94L32.66 12.94L32.66 12.94Q31.91 13.75 30.24 13.75L30.24 13.75ZM28.42 5.05L28.42 8.12L29.79 8.12L29.79 8.12Q30.83 8.12 31.37 7.70L31.37 7.70L31.37 7.70Q31.91 7.28 31.91 6.55L31.91 6.55L31.91 6.55Q31.91 5.05 30.10 5.05L30.10 5.05L28.42 5.05ZM28.42 9.20L28.42 12.64L30.39 12.64L30.39 12.64Q31.40 12.64 31.83 12.18L31.83 12.18L31.83 12.18Q32.26 11.72 32.26 11.02L32.26 11.02L32.26 11.02Q32.26 9.20 29.95 9.20L29.95 9.20L28.42 9.20ZM38.08 13.75L35.83 13.75L35.83 3.95L38.14 3.95L38.14 3.95Q39.20 3.95 40.01 4.37L40.01 4.37L40.01 4.37Q40.81 4.79 41.27 5.50L41.27 5.50L41.27 5.50Q41.72 6.22 41.94 7.06L41.94 7.06L41.94 7.06Q42.15 7.90 42.15 8.85L42.15 8.85L42.15 8.85Q42.15 9.76 41.95 10.58L41.95 10.58L41.95 10.58Q41.75 11.40 41.31 12.13L41.31 12.13L41.31 12.13Q40.87 12.87 40.03 13.31L40.03 13.31L40.03 13.31Q39.20 13.75 38.08 13.75L38.08 13.75ZM37.04 5.05L37.04 12.64L38.12 12.64L38.12 12.64Q38.89 12.64 39.45 12.31L39.45 12.31L39.45 12.31Q40.01 11.98 40.31 11.41L40.31 11.41L40.31 11.41Q40.61 10.84 40.75 10.21L40.75 10.21L40.75 10.21Q40.89 9.58 40.89 8.85L40.89 8.85L40.89 8.85Q40.89 7.25 40.24 6.15L40.24 6.15L40.24 6.15Q39.59 5.05 38.28 5.05L38.28 5.05L37.04 5.05Z"></path></g><defs data-v-fde0c5aa=""><!----></defs><g data-v-fde0c5aa="" id="f4844bf4-face-437d-be8e-ebf3752f55f3" stroke="none" fill="#ffffff" transform="matrix(1.4957975905871543,0,0,1.4957975905871543,74.66041439962031,32.28766884401983)"><path d="M50.849 85.432c-1.874 0-3.4 1.527-3.4 3.402s1.526 3.398 3.4 3.398c1.875 0 3.401-1.523 3.401-3.398s-1.525-3.402-3.401-3.402z"></path><g clip-rule="evenodd"><path d="M39.605 25.628v13.773H25.832V25.628h13.773zM27.77 27.779v9.685h9.9v-9.685h-9.9zM41.543 25.628h1.937v1.937h3.658c.489-.229.082-1.353.216-1.937h1.938v2.151h-1.938v7.747h-1.937v-3.657c-.865-.499-2.651-.075-3.874-.216v-6.025zM74.902 25.628v13.773H61.125V25.628h13.777zm-11.838 2.151v9.685h9.682v-9.685h-9.682z"></path><path d="M29.706 29.718h6.029v5.809h-6.029v-5.809zM65 29.718h5.812v5.809H65v-5.809zM41.543 33.591h1.937v1.935h-1.937v-1.935zM41.543 37.464h1.937v1.937h-1.937v-1.937zM45.417 37.464h1.937v3.875c-.646-.002-1.293 0-1.937 0v-3.875zM45.417 43.275h1.937v1.937h-1.937v-1.937zM39.605 60.924v13.771H25.832V60.924h13.773zm-11.835 2.15c.137 3.164-.278 6.879.213 9.686h9.472c.493-2.877.075-6.666.215-9.9-3.236.136-7.022-.278-9.9.214zM61.125 60.924h1.939v1.936h-1.939v-1.936z"></path><path d="M35.734 64.795v5.812c-1.53.48-3.931.09-5.811.215-.354-1.539-.354-4.488 0-6.027h5.811zM55.314 39.401H53.38v1.722c.158.485 1.205.083 1.723.216.485-.23.079-1.355.211-1.938h1.938v-5.596c-.16-.484-1.207-.083-1.721-.213-.488.228-.082 1.352-.217 1.935H53.38v-1.935c-.734-.06-1.748.166-2.156-.216v-7.532c.408-.383 1.422-.157 2.156-.215v7.963h1.723c.455-.907.104-2.622.211-3.874h1.723c.383-.408.158-1.421.215-2.153h1.939v13.558c.229.489 1.35.082 1.934.216v1.936h-3.654c-.49.229-.086 1.353-.219 1.937H65v-3.873c.648-.002 1.291 0 1.938 0v1.936h1.721c.49-.229.084-1.353.215-1.936h6.029v1.936h-3.877c-.359.358-.168 1.263-.213 1.937h-3.662c-.357.357-.17 1.264-.213 1.938h-1.725c-.455.904-.104 2.622-.213 3.872.314.334 1.104.191 1.725.217.498-.937.07-2.795.213-4.089h3.875v1.936h1.934v-3.658c.408-.382 1.422-.156 2.156-.216v3.874c-.312.334-1.102.189-1.723.215-.551.241.084 1.666-.434 1.938h-1.934v-1.938h-1.939v1.721c.359.361 1.264.172 1.939.217v1.721c.973.461 2.766.102 4.09.215v1.939h-4.09v-1.939h-1.939v1.723c.359.359 1.264.17 1.939.217v1.721c.973.461 2.766.102 4.09.215v7.746h-4.09v-1.936h1.934v-1.936h-3.654c-.502 1.434-.076 3.799-.219 5.596 1.582.498 4.088.072 6.029.215v7.961h-1.938c-.361-.357-.172-1.264-.219-1.936h-3.654c-.494.229-.086 1.35-.219 1.936h-1.936v-1.721c-.229-.488-1.35-.082-1.938-.215v-1.938h-1.936v3.873h-1.939v-4.088h1.939V68.67h-3.873v-1.723c-1.529-.479-3.932-.086-5.811-.213v-1.723c-.312-.332-1.102-.191-1.723-.217-.5.795-.076 2.51-.217 3.66 1.508.5 3.945.07 5.811.215v3.873c.229.488 1.354.082 1.939.217v1.936h-1.939v-1.936h-1.721c-.488.229-.082 1.35-.217 1.936h-1.934v-1.936H55.1c.332-.312.189-1.102.211-1.725-.861-.496-2.65-.074-3.873-.213v3.658c-1.6.482-4.074.086-6.024.215v-1.936H43.69c-.486.229-.079 1.35-.214 1.936h-1.937v-1.936h1.937v-2.152h1.938v1.936c.311.336 1.1.189 1.721.217.5-1.58.074-4.088.216-6.025h1.938v-3.875h6.023v1.936h1.938v-5.594c-.229-.49-1.352-.082-1.938-.215v-1.938h1.938v-1.936h-1.721c-.488.229-.082 1.354-.217 1.936h-1.723c-.484.229-.078 1.352-.211 1.938h-1.939v1.938h-1.937c-.486.227-.079 1.352-.213 1.936h-1.938v3.875h-1.725c-.357.357-.169 1.264-.212 1.936H41.54V57.05h1.937v3.658c.795.498 2.507.076 3.658.217.489-.23.082-1.354.216-1.938h1.938v-1.723c-.229-.486-1.354-.082-1.938-.215v-1.936h-1.725c-.486.229-.08 1.354-.212 1.936h-1.938v-3.875h7.961v1.723c-.406.383-1.42.156-2.15.217v1.721c.902.457 2.619.105 3.869.215.496-2.807.08-6.522.221-9.684-.408-.382-1.422-.158-2.156-.216v-1.938h-1.933v-3.873c.645-.002 1.29 0 1.933 0v-1.722c-.227-.489-1.347-.082-1.933-.216v-3.875h2.15v3.661c.162.484 1.209.084 1.719.214.492-.229.086-1.352.221-1.937h1.934c.002.645.002 1.292.002 1.937zm0 3.874h1.938v-1.936c-.643 0-1.293-.002-1.938 0v1.936zm-1.933 3.874h1.934v1.936c.676.045 1.584-.145 1.938.215v1.938h-1.938v1.936h1.723c.518-.271-.119-1.695.434-1.936h3.654v1.936h-1.934v1.939h1.934c.137-.586-.271-1.709.219-1.939h1.721v1.939h-1.939v1.936h1.939c.133-.582-.275-1.707.217-1.936h3.656v-1.939h-1.938v-1.936h-3.875V49.3c-.584-.133-1.705.273-1.934-.215-.045-.673.145-1.58-.217-1.936h-3.66v-1.722c-.27-.518-1.697.119-1.934-.432v-3.442c-.357-.36-1.266-.171-1.939-.214v3.873h1.939v1.937zm13.557 11.837h1.936v-1.938h-1.936v1.938zm-7.747 5.809H65v-5.809h-5.809v5.809zM43.48 66.734h1.938v-3.875H43.48v3.875zM65 68.67h1.938v-1.936c-1.629-.338-2.274.307-1.938 1.936zm1.938 1.937h3.875v-1.938c-1.792.145-4.682-.808-3.875 1.938zM27.77 43.275h-1.938v-1.936c.645-.002 1.292 0 1.938 0v1.936h1.936c.362.358.174 1.263.218 1.937h1.936v1.938h-2.154v-1.938h-1.723c-.36.357-.168 1.264-.213 1.938h-1.938v-1.938h1.938v-1.937z"></path><path d="M41.543 51.238v-3.873c-1.508-.501-3.943-.074-5.809-.216v-1.722c-.356-.36-1.266-.172-1.94-.216v-1.722c-.354-.359-1.26-.171-1.935-.215v-1.936H43.48v7.532c.159.485 1.206.084 1.723.214.486-.228.08-1.353.215-1.936h1.937v1.936h3.871c.332.392.332 1.761 0 2.153h-3.871v-1.938H45.63c-.486.229-.08 1.354-.212 1.938h-3.659c-.491.229-.084 1.35-.215 1.936h-1.938v1.939h-3.657c-.487.229-.082 1.354-.214 1.936h3.871v1.938h-3.871v-1.938h-1.94V53.39c-.229-.49-1.353-.084-1.935-.217v3.875h-2.154v-1.936H27.77v3.873h-1.938v-7.748h1.938v1.721c.312.332 1.102.189 1.722.215.484-.16.084-1.207.214-1.721-.228-.487-1.353-.082-1.936-.215.06-.732-.169-1.745.213-2.153h1.723c.382.408.157 1.421.218 2.153h3.658c.379-.408.156-1.421.213-2.153h1.722c.382.408.159 1.421.219 2.153h1.721c.382-.408.154-1.421.215-2.153h1.936v2.153h-1.936v1.936h1.722c.486-.229.082-1.352.214-1.936l1.935.001zm-3.873-6.027h3.874v-1.937H37.67v1.937z"></path></g><path d="M69.203 75.805v6.752a.492.492 0 0 1-.49.494H32.432a.493.493 0 0 1-.492-.494v-6.752h-2.706v13.971c0 2.988 2.42 5.41 5.412 5.41h31.729a5.41 5.41 0 0 0 5.412-5.41V75.805h-2.584zM50.836 93.137a4.27 4.27 0 0 1-4.263-4.264 4.269 4.269 0 0 1 4.263-4.266 4.268 4.268 0 0 1 4.265 4.266 4.269 4.269 0 0 1-4.265 4.264zM28.948 23.047v1.491h2.992v-6.304a.49.49 0 0 1 .49-.491h36.283a.49.49 0 0 1 .49.491v6.304h2.584V10.856a5.412 5.412 0 0 0-5.412-5.412h-1.236a.484.484 0 0 0-.443-.288H59.98a.487.487 0 0 0-.443.288H34.646a5.409 5.409 0 0 0-5.412 5.41v6.993a.486.486 0 0 0-.286.443v1.788c0 .199.116.366.286.443v2.082a.488.488 0 0 0-.286.444zM50.346 8.929a.818.818 0 1 1 0 1.639.82.82 0 0 1 0-1.639zm-2.869 3.853h6.148a.492.492 0 1 1 0 .985h-6.148a.493.493 0 1 1 0-.985z"></path></g><!----></svg>