<svg data-v-fde0c5aa="" xmlns="http://www.w3.org/2000/svg" viewBox="0 0 300 300" class="font"><!----><defs data-v-fde0c5aa=""><linearGradient data-v-fde0c5aa="" gradientTransform="rotate(25)" id="b40bd033-b59a-469c-b598-b2d347ca1878" x1="0%" y1="0%" x2="100%" y2="0%"><stop data-v-fde0c5aa="" offset="0%" stop-color="#30223A" stop-opacity="1"></stop><stop data-v-fde0c5aa="" offset="100%" stop-color="#F13800" stop-opacity="1"></stop></linearGradient></defs><rect data-v-fde0c5aa="" fill="url(#b40bd033-b59a-469c-b598-b2d347ca1878)" x="0" y="0" width="300px" height="300px" class="logo-background-square"></rect><defs data-v-fde0c5aa=""><!----></defs><g data-v-fde0c5aa="" id="d1cab098-3cdb-4f84-a759-570e2716b13d" fill="#ffffff" transform="matrix(5.343696609181829,0,0,5.343696609181829,34.76317722107887,100.06315503431142)"><path d="M7.66 8.85L7.66 8.85L7.66 8.85Q7.66 11.82 6.29 13.15L6.29 13.15L7.06 14.31L6.20 14.91L5.40 13.72L5.40 13.72Q4.90 13.92 4.31 13.92L4.31 13.92L4.31 13.92Q3.43 13.92 2.77 13.48L2.77 13.48L2.77 13.48Q2.10 13.05 1.72 12.31L1.72 12.31L1.72 12.31Q1.34 11.56 1.16 10.70L1.16 10.70L1.16 10.70Q0.98 9.83 0.98 8.85L0.98 8.85L0.98 8.85Q0.98 7.87 1.16 7.00L1.16 7.00L1.16 7.00Q1.34 6.13 1.72 5.39L1.72 5.39L1.72 5.39Q2.10 4.65 2.77 4.21L2.77 4.21L2.77 4.21Q3.43 3.78 4.31 3.78L4.31 3.78L4.31 3.78Q5.19 3.78 5.86 4.21L5.86 4.21L5.86 4.21Q6.52 4.65 6.91 5.39L6.91 5.39L6.91 5.39Q7.29 6.13 7.48 7.00L7.48 7.00L7.48 7.00Q7.66 7.87 7.66 8.85ZM4.31 12.80L4.31 12.80L4.31 12.80Q4.56 12.80 4.75 12.74L4.75 12.74L4.07 11.75L4.96 11.14L5.59 12.10L5.59 12.10Q6.40 11.03 6.40 8.85L6.40 8.85L6.40 8.85Q6.40 7.15 5.89 6.03L5.89 6.03L5.89 6.03Q5.38 4.90 4.31 4.90L4.31 4.90L4.31 4.90Q3.58 4.90 3.10 5.51L3.10 5.51L3.10 5.51Q2.62 6.12 2.42 6.97L2.42 6.97L2.42 6.97Q2.23 7.83 2.23 8.85L2.23 8.85L2.23 8.85Q2.23 10.54 2.74 11.67L2.74 11.67L2.74 11.67Q3.25 12.80 4.31 12.80ZM16.06 6.73L16.06 6.73L16.06 6.73Q16.06 7.69 15.53 8.45L15.53 8.45L15.53 8.45Q15.01 9.21 13.92 9.45L13.92 9.45L16.02 13.75L14.69 13.75L12.64 9.55L11.17 9.55L11.17 13.75L9.97 13.75L9.97 3.95L12.98 3.95L12.98 3.95Q14.62 3.95 15.34 4.74L15.34 4.74L15.34 4.74Q16.06 5.53 16.06 6.73ZM13.01 5.05L11.17 5.05L11.17 8.44L13.01 8.44L13.01 8.44Q13.99 8.44 14.43 7.96L14.43 7.96L14.43 7.96Q14.87 7.48 14.87 6.76L14.87 6.76L14.87 6.76Q14.87 6.09 14.43 5.57L14.43 5.57L14.43 5.57Q14 5.05 13.01 5.05L13.01 5.05ZM30.24 13.75L27.22 13.75L27.22 3.95L30.03 3.95L30.03 3.95Q31.64 3.95 32.35 4.68L32.35 4.68L32.35 4.68Q33.07 5.42 33.07 6.52L33.07 6.52L33.07 6.52Q33.07 7.24 32.68 7.77L32.68 7.77L32.68 7.77Q32.30 8.30 31.61 8.58L31.61 8.58L31.61 8.58Q32.44 8.81 32.93 9.44L32.93 9.44L32.93 9.44Q33.42 10.07 33.42 10.96L33.42 10.96L33.42 10.96Q33.42 12.12 32.66 12.94L32.66 12.94L32.66 12.94Q31.91 13.75 30.24 13.75L30.24 13.75ZM28.42 5.05L28.42 8.12L29.79 8.12L29.79 8.12Q30.83 8.12 31.37 7.70L31.37 7.70L31.37 7.70Q31.91 7.28 31.91 6.55L31.91 6.55L31.91 6.55Q31.91 5.05 30.10 5.05L30.10 5.05L28.42 5.05ZM28.42 9.20L28.42 12.64L30.39 12.64L30.39 12.64Q31.40 12.64 31.83 12.18L31.83 12.18L31.83 12.18Q32.26 11.72 32.26 11.02L32.26 11.02L32.26 11.02Q32.26 9.20 29.95 9.20L29.95 9.20L28.42 9.20ZM38.08 13.75L35.83 13.75L35.83 3.95L38.14 3.95L38.14 3.95Q39.20 3.95 40.01 4.37L40.01 4.37L40.01 4.37Q40.81 4.79 41.27 5.50L41.27 5.50L41.27 5.50Q41.72 6.22 41.94 7.06L41.94 7.06L41.94 7.06Q42.15 7.90 42.15 8.85L42.15 8.85L42.15 8.85Q42.15 9.76 41.95 10.58L41.95 10.58L41.95 10.58Q41.75 11.40 41.31 12.13L41.31 12.13L41.31 12.13Q40.87 12.87 40.03 13.31L40.03 13.31L40.03 13.31Q39.20 13.75 38.08 13.75L38.08 13.75ZM37.04 5.05L37.04 12.64L38.12 12.64L38.12 12.64Q38.89 12.64 39.45 12.31L39.45 12.31L39.45 12.31Q40.01 11.98 40.31 11.41L40.31 11.41L40.31 11.41Q40.61 10.84 40.75 10.21L40.75 10.21L40.75 10.21Q40.89 9.58 40.89 8.85L40.89 8.85L40.89 8.85Q40.89 7.25 40.24 6.15L40.24 6.15L40.24 6.15Q39.59 5.05 38.28 5.05L38.28 5.05L37.04 5.05Z"></path></g><!----><!----></svg>